<svg width="1200" height="760" viewBox="0 0 1200 760" fill="none" xmlns="http://www.w3.org/2000/svg">
  <rect width="1200" height="760" fill="#0F1720"/>
  <rect x="72" y="72" width="1056" height="616" rx="28" fill="#121E2A" stroke="#F1EEE6" stroke-width="4"/>
  <g opacity="0.8">
    <rect x="110" y="118" width="26" height="26" fill="#FF4A1C"/>
    <rect x="146" y="118" width="26" height="26" fill="#25D366"/>
    <rect x="182" y="118" width="26" height="26" fill="#F1EEE6" fill-opacity="0.5"/>
    <rect x="218" y="118" width="26" height="26" fill="#3B4A57"/>
    <rect x="254" y="118" width="26" height="26" fill="#FF4A1C"/>
    <rect x="290" y="118" width="26" height="26" fill="#F1EEE6" fill-opacity="0.15"/>
  </g>
  <g opacity="0.9">
    <rect x="110" y="180" width="18" height="18" fill="#F1EEE6" fill-opacity="0.35"/>
    <rect x="142" y="180" width="18" height="18" fill="#2A3A4A"/>
    <rect x="174" y="180" width="18" height="18" fill="#FF4A1C"/>
    <rect x="206" y="180" width="18" height="18" fill="#25D366"/>
    <rect x="238" y="180" width="18" height="18" fill="#F1EEE6" fill-opacity="0.15"/>
    <rect x="270" y="180" width="18" height="18" fill="#2A3A4A"/>
    <rect x="302" y="180" width="18" height="18" fill="#FF4A1C"/>
    <rect x="334" y="180" width="18" height="18" fill="#F1EEE6" fill-opacity="0.2"/>
  </g>
  <rect x="108" y="236" width="964" height="386" rx="22" fill="#101820"/>
  <g opacity="0.9">
    <rect x="184" y="306" width="28" height="28" fill="#FF4A1C"/>
    <rect x="232" y="306" width="28" height="28" fill="#F1EEE6" fill-opacity="0.2"/>
    <rect x="280" y="306" width="28" height="28" fill="#25D366"/>
    <rect x="328" y="306" width="28" height="28" fill="#F1EEE6" fill-opacity="0.35"/>
    <rect x="376" y="306" width="28" height="28" fill="#2A3A4A"/>
    <rect x="424" y="306" width="28" height="28" fill="#FF4A1C"/>
    <rect x="472" y="306" width="28" height="28" fill="#F1EEE6" fill-opacity="0.3"/>
    <rect x="520" y="306" width="28" height="28" fill="#25D366"/>
    <rect x="568" y="306" width="28" height="28" fill="#2A3A4A"/>
    <rect x="616" y="306" width="28" height="28" fill="#FF4A1C"/>
    <rect x="664" y="306" width="28" height="28" fill="#F1EEE6" fill-opacity="0.4"/>
    <rect x="712" y="306" width="28" height="28" fill="#25D366"/>
    <rect x="760" y="306" width="28" height="28" fill="#2A3A4A"/>
    <rect x="808" y="306" width="28" height="28" fill="#FF4A1C"/>
    <rect x="856" y="306" width="28" height="28" fill="#F1EEE6" fill-opacity="0.3"/>
  </g>
  <g opacity="0.9">
    <rect x="184" y="346" width="28" height="28" fill="#2A3A4A"/>
    <rect x="232" y="346" width="28" height="28" fill="#FF4A1C"/>
    <rect x="280" y="346" width="28" height="28" fill="#F1EEE6" fill-opacity="0.25"/>
    <rect x="328" y="346" width="28" height="28" fill="#25D366"/>
    <rect x="376" y="346" width="28" height="28" fill="#2A3A4A"/>
    <rect x="424" y="346" width="28" height="28" fill="#FF4A1C"/>
    <rect x="472" y="346" width="28" height="28" fill="#F1EEE6" fill-opacity="0.3"/>
    <rect x="520" y="346" width="28" height="28" fill="#25D366"/>
    <rect x="568" y="346" width="28" height="28" fill="#FF4A1C"/>
    <rect x="616" y="346" width="28" height="28" fill="#2A3A4A"/>
    <rect x="664" y="346" width="28" height="28" fill="#F1EEE6" fill-opacity="0.25"/>
    <rect x="712" y="346" width="28" height="28" fill="#25D366"/>
    <rect x="760" y="346" width="28" height="28" fill="#FF4A1C"/>
    <rect x="808" y="346" width="28" height="28" fill="#2A3A4A"/>
    <rect x="856" y="346" width="28" height="28" fill="#F1EEE6" fill-opacity="0.3"/>
  </g>
  <rect x="857" y="446" width="180" height="16" rx="8" fill="#F1EEE6" fill-opacity="0.78"/>
  <rect x="857" y="470" width="135" height="12" rx="6" fill="#F1EEE6" fill-opacity="0.4"/>
  <rect x="857" y="510" width="82" height="82" rx="20" fill="#FF4A1C"/>
</svg>
